<svg width="1300" height="800" viewBox="0 0 1300 800" fill="none" xmlns="http://www.w3.org/2000/svg">
<path d="M76 481.115H316.698V601.719H436.792V383.771H196.531L436.792 143H316.698L76 383.771V481.115Z" fill="white"/>
<path d="M488.635 263.531L608.802 143H488.635V263.531Z" fill="white"/>
<path d="M608.802 263.531L488.635 383.771V503.937H608.802V383.771L729.333 263.531V143H608.802L608.802 263.531Z" fill="white"/>
<path d="M729.333 383.771L608.802 503.937L729.333 503.937V383.771Z" fill="white"/>
<path d="M651.875 566.831H641.727V652.831H651.875V566.831Z" fill="white"/>
<path d="M752.679 571.647C748.723 569.239 743.907 567.863 738.833 567.863C719.827 567.863 704.261 584.117 701.423 602.521C698.585 620.409 709.593 636.147 727.825 636.147C733.071 636.147 738.059 634.513 743.133 632.277L745.541 617.227C741.327 621.269 735.479 624.107 730.061 624.107C718.279 624.107 712.775 613.185 714.495 602.263C716.301 591.083 724.987 579.903 737.113 579.903C742.531 579.903 747.433 582.483 750.357 586.783L752.679 571.647Z" fill="white"/>
<path d="M776.896 590.825C763.738 590.825 753.246 600.199 751.182 613.357C749.118 626.429 756.514 635.803 769.758 635.803C783.002 635.803 793.494 626.429 795.558 613.357C797.622 600.199 790.054 590.825 776.896 590.825ZM775.262 601.489C781.454 601.489 784.206 607.509 783.346 613.357C782.4 619.033 777.67 625.139 771.478 625.139C765.286 625.139 762.448 619.033 763.394 613.357C764.254 607.509 769.07 601.489 775.262 601.489Z" fill="white"/>
<path d="M825.817 634.427H837.857L849.381 561.499H837.341L831.837 596.071H831.665C829.601 592.717 825.387 590.825 821.001 590.825C808.875 590.825 800.017 601.919 798.211 613.099C796.405 624.537 801.651 635.803 814.035 635.803C818.421 635.803 823.237 633.911 826.247 630.471H826.419L825.817 634.427ZM818.507 625.139C812.315 625.139 809.477 618.947 810.423 613.271C811.283 607.595 816.099 601.489 822.291 601.489C828.483 601.489 831.235 607.595 830.375 613.271C829.429 618.947 824.699 625.139 818.507 625.139Z" fill="white"/>
<path d="M887 615.249L887.258 613.787C889.236 601.059 884.678 590.825 870.832 590.825C857.158 590.825 848.816 600.887 846.752 613.701C844.774 626.515 851.224 635.803 864.296 635.803C873.154 635.803 881.324 631.073 885.624 622.645L874.788 620.839C872.638 624.193 869.714 626.601 865.758 626.601C859.48 626.601 858.362 620.581 859.222 615.249H887ZM860.77 607.767C862.06 603.381 865.414 599.253 870.23 599.253C874.874 599.253 876.938 603.467 876.852 607.767H860.77Z" fill="white"/>
<path d="M944.365 580.591H957.437L959.157 569.583H920.371L918.651 580.591H931.723L923.209 634.427H935.851L944.365 580.591Z" fill="white"/>
<path d="M970.816 590.825C957.658 590.825 947.166 600.199 945.102 613.357C943.038 626.429 950.434 635.803 963.678 635.803C976.922 635.803 987.414 626.429 989.478 613.357C991.542 600.199 983.974 590.825 970.816 590.825ZM969.182 601.489C975.374 601.489 978.126 607.509 977.266 613.357C976.32 619.033 971.59 625.139 965.398 625.139C959.206 625.139 956.368 619.033 957.314 613.357C958.174 607.509 962.99 601.489 969.182 601.489Z" fill="white"/>
<path d="M1038.23 592.201H1026.19L1025.5 596.243H1025.33C1023.43 592.975 1019.48 590.825 1015.26 590.825C1002.71 590.825 993.937 602.005 992.045 613.615C990.239 624.967 995.141 635.803 1007.52 635.803C1012 635.803 1016.81 633.653 1019.99 630.213H1020.17L1019.74 632.965C1018.7 639.329 1017.33 646.811 1008.82 646.811C1004.26 646.811 1001.59 643.887 1001.68 639.415H988.949C987.745 650.681 997.205 656.959 1007.52 656.959C1023.35 656.959 1029.71 645.607 1031.95 631.847L1038.23 592.201ZM1012.43 625.139C1006.24 625.139 1003.4 619.033 1004.34 613.357C1005.2 607.681 1010.02 601.489 1016.21 601.489C1022.4 601.489 1025.15 607.681 1024.3 613.357C1023.35 619.033 1018.62 625.139 1012.43 625.139Z" fill="white"/>
<path d="M1080.58 615.249L1080.84 613.787C1082.82 601.059 1078.26 590.825 1064.42 590.825C1050.74 590.825 1042.4 600.887 1040.34 613.701C1038.36 626.515 1044.81 635.803 1057.88 635.803C1066.74 635.803 1074.91 631.073 1079.21 622.645L1068.37 620.839C1066.22 624.193 1063.3 626.601 1059.34 626.601C1053.06 626.601 1051.95 620.581 1052.81 615.249H1080.58ZM1054.35 607.767C1055.64 603.381 1059 599.253 1063.81 599.253C1068.46 599.253 1070.52 603.467 1070.44 607.767H1054.35Z" fill="white"/>
<path d="M1101.74 602.349H1109.13L1110.77 592.201H1103.37L1105.61 577.925H1093.57L1091.33 592.201H1087.2L1085.57 602.349H1089.7L1084.62 634.427H1096.66L1101.74 602.349Z" fill="white"/>
<path d="M1118.29 561.499L1106.76 634.427H1118.8L1122.07 613.529C1122.93 608.455 1124.22 600.457 1131.36 600.457C1138.15 600.457 1136.86 606.993 1136.09 612.067L1132.56 634.427H1144.6L1148.64 608.627C1150.19 598.823 1148.21 590.825 1136.86 590.825C1132.56 590.825 1128.09 592.287 1125.08 595.727H1124.91L1130.33 561.499H1118.29Z" fill="white"/>
<path d="M1193.71 615.249L1193.97 613.787C1195.95 601.059 1191.39 590.825 1177.54 590.825C1163.87 590.825 1155.53 600.887 1153.46 613.701C1151.48 626.515 1157.93 635.803 1171.01 635.803C1179.86 635.803 1188.03 631.073 1192.33 622.645L1181.5 620.839C1179.35 624.193 1176.42 626.601 1172.47 626.601C1166.19 626.601 1165.07 620.581 1165.93 615.249H1193.71ZM1167.48 607.767C1168.77 603.381 1172.12 599.253 1176.94 599.253C1181.58 599.253 1183.65 603.467 1183.56 607.767H1167.48Z" fill="white"/>
<path d="M1215.04 592.201H1203L1196.29 634.427H1208.33L1211.34 615.421C1212.37 608.885 1214.43 601.489 1222.78 601.489C1224.58 601.489 1226.22 602.005 1227.51 603.037L1230.69 591.857C1229.23 591.255 1227.59 590.825 1225.87 590.825C1221.4 590.825 1217.44 592.889 1214.52 596.587H1214.35L1215.04 592.201Z" fill="white"/>
</svg>
