<svg width="1280" height="720" viewBox="0 0 1280 720" fill="none" xmlns="http://www.w3.org/2000/svg">
<path d="M40 461.453H263.854V573.617H375.543V370.922H152.096L375.543 147H263.854L40 370.922V461.453Z" fill="black"/>
<path d="M423.759 259.096L535.516 147H423.759V259.096Z" fill="black"/>
<path d="M535.516 259.096L423.759 370.921V482.679H535.516V370.921L647.613 259.096V147H535.516L535.516 259.096Z" fill="black"/>
<path d="M647.613 370.922L535.516 482.679L647.613 482.679V370.922Z" fill="black"/>
<path d="M701.691 390.974H692.254V470.956H701.691V390.974Z" fill="black"/>
<path d="M795.442 395.453C791.763 393.213 787.284 391.934 782.565 391.934C764.889 391.934 750.412 407.05 747.773 424.166C745.133 440.802 755.371 455.439 772.327 455.439C777.206 455.439 781.845 453.919 786.564 451.84L788.803 437.843C784.884 441.602 779.446 444.242 774.407 444.242C763.449 444.242 758.33 434.084 759.93 423.926C761.61 413.529 769.688 403.131 780.965 403.131C786.004 403.131 790.563 405.531 793.282 409.53L795.442 395.453Z" fill="black"/>
<path d="M817.964 413.289C805.726 413.289 795.969 422.007 794.049 434.244C792.13 446.401 799.008 455.119 811.325 455.119C823.642 455.119 833.4 446.401 835.32 434.244C837.239 422.007 830.201 413.289 817.964 413.289ZM816.444 423.207C822.203 423.207 824.762 428.805 823.962 434.244C823.082 439.523 818.683 445.201 812.925 445.201C807.166 445.201 804.527 439.523 805.406 434.244C806.206 428.805 810.685 423.207 816.444 423.207Z" fill="black"/>
<path d="M863.461 453.84H874.659L885.376 386.015H874.179L869.06 418.168H868.9C866.981 415.048 863.061 413.289 858.982 413.289C847.705 413.289 839.467 423.606 837.787 434.004C836.108 444.642 840.986 455.119 852.504 455.119C856.583 455.119 861.062 453.36 863.861 450.16H864.021L863.461 453.84ZM856.663 445.201C850.904 445.201 848.265 439.443 849.145 434.164C849.944 428.885 854.423 423.207 860.182 423.207C865.941 423.207 868.5 428.885 867.7 434.164C866.821 439.443 862.422 445.201 856.663 445.201Z" fill="black"/>
<path d="M920.363 436.004L920.603 434.644C922.442 422.807 918.203 413.289 905.326 413.289C892.609 413.289 884.851 422.647 882.931 434.564C881.092 446.481 887.09 455.119 899.247 455.119C907.486 455.119 915.084 450.72 919.083 442.882L909.005 441.202C907.006 444.322 904.286 446.561 900.607 446.561C894.769 446.561 893.729 440.962 894.529 436.004H920.363ZM895.968 429.045C897.168 424.966 900.287 421.127 904.766 421.127C909.085 421.127 911.005 425.046 910.925 429.045H895.968Z" fill="black"/>
<path d="M973.714 403.771H985.871L987.47 393.533H951.399L949.799 403.771H961.956L954.038 453.84H965.795L973.714 403.771Z" fill="black"/>
<path d="M998.313 413.289C986.076 413.289 976.318 422.007 974.398 434.244C972.479 446.401 979.357 455.119 991.674 455.119C1003.99 455.119 1013.75 446.401 1015.67 434.244C1017.59 422.007 1010.55 413.289 998.313 413.289ZM996.793 423.207C1002.55 423.207 1005.11 428.805 1004.31 434.244C1003.43 439.523 999.033 445.201 993.274 445.201C987.515 445.201 984.876 439.523 985.756 434.244C986.556 428.805 991.035 423.207 996.793 423.207Z" fill="black"/>
<path d="M1061.01 414.568H1049.81L1049.17 418.328H1049.01C1047.25 415.288 1043.57 413.289 1039.65 413.289C1027.97 413.289 1019.82 423.686 1018.06 434.484C1016.38 445.042 1020.94 455.119 1032.45 455.119C1036.61 455.119 1041.09 453.12 1044.05 449.92H1044.21L1043.81 452.48C1042.85 458.398 1041.57 465.357 1033.65 465.357C1029.41 465.357 1026.93 462.637 1027.01 458.478H1015.18C1014.06 468.956 1022.86 474.795 1032.45 474.795C1047.17 474.795 1053.09 464.237 1055.17 451.44L1061.01 414.568ZM1037.01 445.201C1031.25 445.201 1028.61 439.523 1029.49 434.244C1030.29 428.965 1034.77 423.207 1040.53 423.207C1046.29 423.207 1048.85 428.965 1048.05 434.244C1047.17 439.523 1042.77 445.201 1037.01 445.201Z" fill="black"/>
<path d="M1100.4 436.004L1100.64 434.644C1102.48 422.807 1098.24 413.289 1085.36 413.289C1072.65 413.289 1064.89 422.647 1062.97 434.564C1061.13 446.481 1067.13 455.119 1079.28 455.119C1087.52 455.119 1095.12 450.72 1099.12 442.882L1089.04 441.202C1087.04 444.322 1084.32 446.561 1080.64 446.561C1074.81 446.561 1073.77 440.962 1074.57 436.004H1100.4ZM1076.01 429.045C1077.2 424.966 1080.32 421.127 1084.8 421.127C1089.12 421.127 1091.04 425.046 1090.96 429.045H1076.01Z" fill="black"/>
<path d="M1120.07 424.006H1126.95L1128.47 414.568H1121.59L1123.67 401.292H1112.47L1110.4 414.568H1106.56L1105.04 424.006H1108.88L1104.16 453.84H1115.35L1120.07 424.006Z" fill="black"/>
<path d="M1135.46 386.015L1124.75 453.84H1135.94L1138.98 434.404C1139.78 429.685 1140.98 422.247 1147.62 422.247C1153.94 422.247 1152.74 428.325 1152.02 433.044L1148.74 453.84H1159.94L1163.7 429.845C1165.14 420.727 1163.3 413.289 1152.74 413.289C1148.74 413.289 1144.58 414.648 1141.78 417.848H1141.62L1146.66 386.015H1135.46Z" fill="black"/>
<path d="M1205.61 436.004L1205.85 434.644C1207.69 422.807 1203.45 413.289 1190.57 413.289C1177.86 413.289 1170.1 422.647 1168.18 434.564C1166.34 446.481 1172.34 455.119 1184.49 455.119C1192.73 455.119 1200.33 450.72 1204.33 442.882L1194.25 441.202C1192.25 444.322 1189.53 446.561 1185.85 446.561C1180.02 446.561 1178.98 440.962 1179.78 436.004H1205.61ZM1181.22 429.045C1182.42 424.966 1185.53 421.127 1190.01 421.127C1194.33 421.127 1196.25 425.046 1196.17 429.045H1181.22Z" fill="black"/>
<path d="M1225.44 414.568H1214.25L1208.01 453.84H1219.2L1222 436.164C1222.96 430.085 1224.88 423.207 1232.64 423.207C1234.32 423.207 1235.84 423.686 1237.04 424.646L1240 414.249C1238.64 413.689 1237.12 413.289 1235.52 413.289C1231.36 413.289 1227.68 415.208 1224.96 418.648H1224.8L1225.44 414.568Z" fill="black"/>
</svg>
